<svg xmlns="http://www.w3.org/2000/svg" viewBox="0 0 24 24" class="header-item__subscription-icon mr-4"><path d="M3 12.5a9 9 0 019-9v-3l3.89 3.89.14.07L12 8.5v-3c-3.87 0-7 3.13-7 7s3.13 7 7 7 7-3.13 7-7c0-1.93-.79-3.68-2.06-4.94l1.42-1.42A8.954 8.954 0 0121 12.5a9 9 0 01-18 0zm9.012-1.923c.25-.214.54-.375.855-.471 1.605-.464 2.861.79 2.598 2.34a3.288 3.288 0 01-.855 1.627 8.092 8.092 0 01-2.4 1.855.33.33 0 01-.35.04A7.628 7.628 0 019 13.569a2.579 2.579 0 01-.5-1.457c0-.77.263-1.43.96-1.83a2.084 2.084 0 012.15.033c.142.076.276.163.402.262z"></path></svg>