<svg xmlns="http://www.w3.org/2000/svg" viewBox="0 0 24 24" class="selling-points__list-item--svg"><path fill-rule="evenodd" d="M12 4.915a5.99 5.99 0 014.5-2.09c3.08 0 5.5 2.42 5.5 5.5 0 3.777-3.394 6.855-8.537 11.518l-.013.012-1.45 1.32-1.49-1.346C5.384 15.17 2 12.095 2 8.325c0-3.08 2.42-5.5 5.5-5.5a5.99 5.99 0 014.5 2.09zm0 13.56l.1-.1c4.76-4.31 7.9-7.16 7.9-10.05 0-2-1.5-3.5-3.5-3.5-1.54 0-3.04.99-3.56 2.36h-1.87c-.53-1.37-2.03-2.36-3.57-2.36-2 0-3.5 1.5-3.5 3.5 0 2.89 3.14 5.74 7.9 10.05l.1.1z"></path></svg>