<svg viewBox="0 0 25 21" xmlns="http://www.w3.org/2000/svg" class="footer__box-icon svg-32 fill-secondary"><path d="M12.207 2.415l.32.245.308-.26A8.028 8.028 0 0115.697.85C18.4.084 20.764.744 22.343 2.191c1.583 1.45 2.417 3.726 1.978 6.275a10.939 10.939 0 01-2.911 5.438l-.008.008-.007.008a28.272 28.272 0 01-8.404 6.382l-.044.023-.04.03a.691.691 0 01-.72.08 26.566 26.566 0 01-10.003-8.238l-.003-.003A8.423 8.423 0 01.5 7.386c.002-2.569.883-4.68 3.165-5.96l.004-.002A7.026 7.026 0 017.26.5a7.017 7.017 0 013.561 1.03l.014.008.015.007c.477.251.931.542 1.357.87z"></path></svg>