<svg fill="none" viewBox="0 0 142 37" xmlns="http://www.w3.org/2000/svg" class="logo__image"><g fill="#541e82"><path d="M6.527 9.143a6.609 6.609 0 015.7-2.8 8.279 8.279 0 016.366 2.873 10.388 10.388 0 012.6 7.309 10.418 10.418 0 01-2.643 7.309 8.1 8.1 0 01-6.274 2.85A6.59 6.59 0 016.5 23.557v12.664H0V6.527h6.527zm7.125 11.009a4.796 4.796 0 001.31-3.608 4.85 4.85 0 00-1.31-3.631 4.246 4.246 0 00-6.067-.023 4.794 4.794 0 00-1.31 3.608 4.85 4.85 0 001.31 3.631 4.23 4.23 0 003.034 1.287 4.3 4.3 0 003.034-1.264M55.895 21.006h1.954v5.079h-2.9c-2.23 0-4.068-.322-5.309-1.31-1.218-.988-1.954-2.505-1.954-4.9v-8.3h-1.444V6.527h1.448V1.448h6.55v5.079h3.63v5.079h-3.628v8.3c0 .9.437 1.1 1.655 1.1M69.293 0h-6.665v26.086h6.665zM98.573 6.527h6.711l4.3 13.859 4.3-13.859h6.711l-7.056 19.558h-7.906z"></path></g><path d="M84.715 7.883a8.305 8.305 0 012.988-1.655c5.608-1.632 10 2.781 9.078 8.228a11.585 11.585 0 01-2.988 5.723 28.3 28.3 0 01-8.389 6.527 1.153 1.153 0 01-1.218.138 26.7 26.7 0 01-10-8.435 9.11 9.11 0 01-1.747-5.125c0-2.712.919-5.033 3.355-6.435a7.243 7.243 0 017.516.115c.492.266.96.573 1.4.919" fill="#f24783"></path><g fill="#541e82"><path d="M43.644 18.82c.09-.693.136-1.392.138-2.091A9.652 9.652 0 0033.6 6.32a9.683 9.683 0 00-7.148 2.758 9.99 9.99 0 00-2.758 7.4 11.1 11.1 0 001.333 5.539c.115.184.207.368.322.529.046.069.092.138.16.23.116.161.23.3.346.46.194.24.401.47.62.689a9.664 9.664 0 007.149 2.8h.253a9.774 9.774 0 007.17-2.758 8.712 8.712 0 002.23-3.7h-6.5a3.987 3.987 0 01-3.15 1.379c-1.953 0-3.561-1.2-3.653-2.666v-.138H43.65zm-12.411-6.55a3.609 3.609 0 012.459-.8 3.892 3.892 0 012.528.827 3.468 3.468 0 011.218 2.183h-7.47a4.1 4.1 0 011.265-2.207zM140.862 18.82c.09-.693.136-1.392.138-2.091a9.645 9.645 0 00-6.138-9.775 9.65 9.65 0 00-4.043-.634 9.681 9.681 0 00-7.148 2.758 9.978 9.978 0 00-2.758 7.4c-.045 1.93.414 3.84 1.333 5.539.115.184.207.368.322.529.046.069.092.138.161.23.115.161.23.3.345.46.194.24.401.47.62.689a9.668 9.668 0 007.148 2.8h.253a9.774 9.774 0 007.171-2.758 8.714 8.714 0 002.229-3.7h-6.5a3.988 3.988 0 01-3.148 1.379c-1.954 0-3.562-1.2-3.654-2.666v-.138h13.675zm-12.411-6.55a3.61 3.61 0 012.459-.8 3.89 3.89 0 012.528.827 3.467 3.467 0 011.218 2.183h-7.469a4.1 4.1 0 011.264-2.207z"></path></g></svg>