<svg xmlns="http://www.w3.org/2000/svg" viewBox="0 0 24 24" class="selling-points__list-item--svg"><path fill-rule="evenodd" d="M15.905 6.091c-.168.754-.51 1.302-.823 1.6-.155.146-.26.2-.317.22-.043-.041-.116-.136-.193-.334-.157-.403-.234-1.044-.065-1.798s.51-1.302.824-1.6a.96.96 0 01.316-.22c.043.041.116.136.193.334.158.403.234 1.044.065 1.798zm-1.188 1.83zm.076.015l.01.005-.01-.005zm.902-3.988l-.011.001h.011zm-.076-.014zm2.238 2.593c-.486 2.178-2.067 3.678-3.531 3.351s-2.258-2.357-1.771-4.535 2.067-3.678 3.532-3.35 2.257 2.357 1.77 4.534zm1.665 5.968c.388-.19.878-.61 1.265-1.28s.505-1.303.476-1.735a.97.97 0 00-.084-.377c-.06.002-.178.022-.369.116-.388.19-.878.61-1.264 1.28s-.506 1.304-.477 1.735a.97.97 0 00.084.377c.06-.002.178-.022.369-.116zm-.417.111zm.069.037zm2.053-3.535zm-.069-.036h.001zm-3.012 5.284c1.3.75 3.257-.208 4.373-2.14s.966-4.108-.333-4.858-3.257.208-4.373 2.14-.966 4.108.333 4.858zm-4.648-1.057a2 2 0 00-3.329 0l-1.603 2.405L5.6 17.86a.911.911 0 00.166 1.57l.11.049a2.539 2.539 0 001.973.037 10.73 10.73 0 017.97 0c.636.254 1.348.24 1.974-.037l.11-.049a.911.911 0 00.165-1.57l-2.966-2.157-1.603-2.405zm-4.993-1.11c1.583-2.374 5.073-2.374 6.657 0l1.404 2.107 2.678 1.948c1.812 1.318 1.518 4.104-.53 5.015l-.11.048a4.538 4.538 0 01-3.528.067 8.73 8.73 0 00-6.485 0 4.538 4.538 0 01-3.528-.067l-.11-.048c-2.048-.91-2.343-3.697-.53-5.015l2.678-1.947 1.404-2.107zm.282-4.498c-.313-.298-.655-.846-.824-1.6s-.092-1.395.065-1.798c.078-.198.15-.293.193-.334a.95.95 0 01.317.22c.314.298.656.846.824 1.6s.092 1.395-.065 1.798a.95.95 0 01-.193.335c-.056-.02-.162-.075-.317-.221zm.365.23H9.14h.012zm-.076.015l-.01.005.01-.005zm-.902-3.988l.011.001h-.011zm.076-.014zm1.293 5.944c-1.464.327-3.045-1.173-3.531-3.35s.306-4.209 1.77-4.536 3.046 1.173 3.532 3.351-.306 4.208-1.77 4.535zM2.98 11.215c.387.67.877 1.09 1.265 1.28.191.094.309.114.368.116.029-.053.07-.165.084-.377.03-.431-.09-1.066-.476-1.735s-.876-1.09-1.264-1.28c-.191-.094-.309-.114-.369-.116a.952.952 0 00-.084.377c-.03.432.09 1.066.476 1.735zm1.682 1.391zm-.069.037zM2.54 9.107zm.068-.036l.009-.009-.009.009zm-1.36 3.143c1.116 1.933 3.074 2.891 4.373 2.14s1.448-2.924.332-4.856-3.073-2.89-4.372-2.14-1.448 2.924-.333 4.856z"></path></svg>