<svg xmlns="http://www.w3.org/2000/svg" viewBox="0 0 24 24" class="mr-4"><path d="M22 17.225c0 .399-.233.745-.589.924l-8.778 4.662A1.09 1.09 0 0112 23a1.09 1.09 0 01-.633-.189l-8.778-4.662A1.035 1.035 0 012 17.225v-9.45c0-.399.233-.746.589-.924l8.778-4.662c.177-.126.4-.189.633-.189.233 0 .456.063.633.189l8.778 4.662c.356.178.589.525.589.924v9.45zM12 4.257L9.9 5.382l6.544 3.56 2.178-1.166L12 4.257zM5.378 7.776L12 11.293l2.178-1.155-6.534-3.57-2.266 1.207zm-1.156 8.83l6.667 3.55V13.11L4.222 9.57v7.035zm15.556 0V9.57l-6.668 3.54v7.045l6.667-3.549z"></path></svg>